# xmcd
#
# Track frame offsets:
# 150
# 20256
# 40808
# 57873
# 74906
#
# Disc length: 1176 seconds
#
#
# Revision: 0
# Processed by: cddbd v1.5.2PL0 Copyright (c) Steve Scherf et al.
# Submitted via: FreeRIP 2.944 
#
DISCID=41049605
DTITLE=Ray Cheong - Live in London
DYEAR=2011
DGENRE=Blues
TTITLE0=Just A While
TTITLE1=What Happens Now
TTITLE2=Afraid
TTITLE3=Be The Same
TTITLE4=Dreamt About You
EXTD=
EXTT0=
EXTT1=
EXTT2=
EXTT3=
EXTT4=
PLAYORDER=
